<svg xmlns="http://www.w3.org/2000/svg" width="145.816" height="51.415" viewBox="0 0 145.816 51.415">
  <g id="Group_1757" data-name="Group 1757" transform="translate(9792.271 22562.348)">
    <rect id="Rectangle_1" data-name="Rectangle 1" width="9.096" height="31.395" transform="translate(-9723.945 -22543.898)" fill="#2f33b0"/>
    <rect id="Rectangle_2" data-name="Rectangle 2" width="9.46" height="49.845" transform="translate(-9706.929 -22562.348)" fill="#2f33b0"/>
    <path id="Path_6" data-name="Path 6" d="M0,0H9.46V49.845H0Z" transform="translate(-9688.154 -22562.348)" fill="#2f33b0"/>
    <path id="Path_5" data-name="Path 5" d="M0,0H9.1V31.209H0Z" transform="translate(-9670.772 -22543.711)" fill="#2f33b0"/>
    <path id="Path_1" data-name="Path 1" d="M537.785,11.391a5.121,5.121,0,1,1-5.121-5.121,5.121,5.121,0,0,1,5.121,5.121" transform="translate(-10252.061 -22567.813)" fill="#2f33b0"/>
    <path id="Path_2" data-name="Path 2" d="M952.448,11.391a5.121,5.121,0,1,1-5.121-5.121,5.121,5.121,0,0,1,5.121,5.121" transform="translate(-10613.467 -22567.813)" fill="#2f33b0"/>
    <path id="Path_3" data-name="Path 3" d="M37.9,124.177a18.95,18.95,0,1,0-20.181,18.905h0l.039,0c.216.014.434.022.652.028.111,0,.221.007.332.008.07,0,.139.005.208.005s.142-.007.214-.008q.49,0,.981-.035c.082-.005.164-.007.246-.013.379-.029.759-.071,1.139-.123.139-.019.277-.042.415-.064q.381-.061.762-.139c.154-.031.309-.06.462-.094q.494-.113.986-.254c.2-.057.395-.12.591-.184.091-.029.183-.054.274-.085.057-.019.112-.044.169-.064q.459-.16.91-.345.2-.083.407-.171.388-.169.769-.356.272-.133.54-.274.294-.156.583-.323.342-.2.674-.406c.07-.044.144-.083.213-.128l-.005-.007a18.819,18.819,0,0,0,4.549-4.141l-6.974-5.187a10.16,10.16,0,0,1-2.579,2.224c-.105.064-.213.123-.32.183s-.226.127-.341.186c-.065.033-.13.063-.2.095-.159.077-.319.152-.483.221l-.1.039c-.192.078-.386.152-.583.219l-.1.031a10.264,10.264,0,0,1-1.374.348c-.1.018-.2.038-.308.054s-.189.025-.284.037c-.132.016-.264.03-.4.041l-.235.017q-.245.014-.493.017c-.053,0-.106,0-.159,0q-.346,0-.688-.026c-.058,0-.115-.011-.173-.016a10.255,10.255,0,0,1-8.558-6.229l-.31-.732H37.494a14.69,14.69,0,0,0,.406-3.261M9.183,120.916l.31-.732a10.265,10.265,0,0,1,18.913,0l.31.732Z" transform="translate(-9792.271 -22654.061)" fill="#2f33b0"/>
    <path id="Path_4" data-name="Path 4" d="M311.083,50.165h9.987V27.72h14.836V18.833H321.07a15.037,15.037,0,0,1,.973-5.565,4.674,4.674,0,0,1,3-2.2,21.806,21.806,0,0,1,5.67-.592V.489q-10.241-.508-14.9,4.232c-3.1,3.161-4.655,8.415-4.655,14.113h-6.263V27.72h6.178Z" transform="translate(-10058.017 -22562.729)" fill="#2f33b0"/>
    <rect id="Rectangle_5" data-name="Rectangle 5" width="8.887" height="8.887" transform="translate(-9655.343 -22521.453)" fill="#ff6364"/>
    <rect id="Rectangle_6" data-name="Rectangle 6" width="145.816" height="51.415" transform="translate(-9792.271 -22562.348)" fill="none"/>
  </g>
</svg>
